# xmcd CD database file
#
# Track frame offsets:
#	150
#	12495
#	25315
#	37165
#	48485
#	64143
#	76213
#	85776
#	98089
#	107836
#	120018
#	132710
#	146503
#	158981
#	170824
#	182812
#	192942
#	205589
#
# Disc length: 2878 seconds
#
# Revision: 1
# Processed by: cddbd v1.5.1PL0 Copyright (c) Steve Scherf et al.
# Submitted via: CDex 1.51
#
DISCID=f80b3c12
DTITLE=Bobby Bare, Dave Dudley und andere - Let압 Go Country
DYEAR=1999
DGENRE=Country
TTITLE0=Roses Are Red - Bobby Bare
TTITLE1=Me and Ole C.B - Dave Dudley
TTITLE2=Papa and Mama - Billy Grammwe
TTITLE3=The Bridge I have never crossed - Ferlin Husky
TTITLE4=I know what it압 all about Mama - Karen ODonNel
TTITLE5=It압 good To know she압 there - Ronny Rogers
TTITLE6=Running with the wind - George Kent
TTITLE7=I only Roll 안m - Ferlin Husky
TTITLE8=What makes me feel so blue - Norville Dollar 
TTITLE9=How come it took so longto say Goodbye - Rick Pilgreen
TTITLE10=Rosalie - Bobby Bare
TTITLE11=I was Country before Barbara Mandell - Dave Dudley
TTITLE12=Warm sweet love - Rick Johnson
TTITLE13=I always did like Leavenworth - George Kent
TTITLE14=South bound and down - Dave Dudley
TTITLE15=Let압 just pretend - George Kent
TTITLE16=Looking for a cold lonely winter - Bobby Lord
TTITLE17=Kack Knife - David Price
EXTD=YEAR: 1999
EXTT0=
EXTT1=
EXTT2=
EXTT3=
EXTT4=
EXTT5=
EXTT6=
EXTT7=
EXTT8=
EXTT9=
EXTT10=
EXTT11=
EXTT12=
EXTT13=
EXTT14=
EXTT15=
EXTT16=
EXTT17=
PLAYORDER=
